<?xml version="1.0" encoding="UTF-8" standalone="no"?>
<!-- Created with Inkscape (http://www.inkscape.org/) -->

<svg
   xmlns:dc="http://purl.org/dc/elements/1.1/"
   xmlns:cc="http://creativecommons.org/ns#"
   xmlns:rdf="http://www.w3.org/1999/02/22-rdf-syntax-ns#"
   xmlns:svg="http://www.w3.org/2000/svg"
   xmlns="http://www.w3.org/2000/svg"
   xmlns:sodipodi="http://sodipodi.sourceforge.net/DTD/sodipodi-0.dtd"
   xmlns:inkscape="http://www.inkscape.org/namespaces/inkscape"
   id="svg2"
   version="1.1"
   inkscape:version="0.91 r13725"
   xml:space="preserve"
   width="595"
   height="315"
   viewBox="0 0 595 315"
   sodipodi:docname="ffi.svg"><metadata
     id="metadata8"><rdf:RDF><cc:Work
         rdf:about=""><dc:format>image/svg+xml</dc:format><dc:type
           rdf:resource="http://purl.org/dc/dcmitype/StillImage" /><dc:title></dc:title></cc:Work></rdf:RDF></metadata><defs
     id="defs6"><clipPath
       clipPathUnits="userSpaceOnUse"
       id="clipPath22"><path
         d="M 0,0 476,0 476,252 0,252 0,0 Z"
         id="path24"
         inkscape:connector-curvature="0" /></clipPath></defs><sodipodi:namedview
     pagecolor="#ffffff"
     bordercolor="#666666"
     borderopacity="1"
     objecttolerance="10"
     gridtolerance="10"
     guidetolerance="10"
     inkscape:pageopacity="0"
     inkscape:pageshadow="2"
     inkscape:window-width="1594"
     inkscape:window-height="865"
     id="namedview4"
     showgrid="false"
     inkscape:zoom="1.695969"
     inkscape:cx="285.29112"
     inkscape:cy="157.5"
     inkscape:window-x="0"
     inkscape:window-y="0"
     inkscape:window-maximized="0"
     inkscape:current-layer="g10" /><g
     id="g10"
     inkscape:groupmode="layer"
     inkscape:label="ffi"
     transform="matrix(1.25,0,0,-1.25,0,315)"><g
       id="g12" /><g
       id="g14" /><g
       id="g16"><g
         id="g18"><g
           id="g20"
           clip-path="url(#clipPath22)"><g
             id="g26" /><g
             id="g28"><path
               d="M 0,252 476,252 476,0 0,0 0,252 Z"
               style="fill:#000000;fill-opacity:0;fill-rule:nonzero;stroke:none"
               id="path30"
               inkscape:connector-curvature="0" /><path
               d="m 11,249 455,0 0,-159 -455,0 0,159 z"
               style="fill:#d4fc78;fill-opacity:0.4;fill-rule:nonzero;stroke:none"
               id="path32"
               inkscape:connector-curvature="0" /><g
               id="g34"
               transform="matrix(1,0,0,-1,-87,381)"><path
                 d="m 98,132 455,0 0,159 -455,0 0,-159 z"
                 style="fill:none;stroke:#000000;stroke-width:2;stroke-linecap:butt;stroke-linejoin:miter;stroke-miterlimit:4;stroke-dasharray:none;stroke-opacity:1"
                 id="path36"
                 inkscape:connector-curvature="0" /></g><path
               d="M 11,90 162,90 162,9 11,9 11,90 Z"
               style="fill:#fff5c0;fill-opacity:1;fill-rule:nonzero;stroke:none"
               id="path38"
               inkscape:connector-curvature="0" /><g
               id="g40"
               transform="matrix(1,0,0,-1,-87,381)"><path
                 d="m 98,291 151,0 0,81 -151,0 0,-81 z"
                 style="fill:none;stroke:#000000;stroke-width:2;stroke-linecap:butt;stroke-linejoin:miter;stroke-miterlimit:4;stroke-dasharray:none;stroke-opacity:1"
                 id="path42"
                 inkscape:connector-curvature="0" /></g><g
               id="g44"
               transform="matrix(1,0,0,-1,12,89)"><text
                 transform="translate(63.667477,33)"
                 style="font-variant:normal;font-weight:normal;font-size:30px;font-family:Helvetica;-inkscape-font-specification:Helvetica;writing-mode:lr-tb;fill:#000000;fill-opacity:1;fill-rule:nonzero;stroke:none"
                 id="text46"><tspan
                   x="0 21.66"
                   y="0"
                   sodipodi:role="line"
                   id="tspan48">C </tspan></text>
</g><g
               id="g50"
               transform="matrix(1,0,0,-1,12,89)"><text
                 transform="translate(17.817871,69)"
                 style="font-variant:normal;font-weight:normal;font-size:30px;font-family:Helvetica;-inkscape-font-specification:Helvetica;writing-mode:lr-tb;fill:#000000;fill-opacity:1;fill-rule:nonzero;stroke:none"
                 id="text52"><tspan
                   x="0 15 31.68 56.669998 73.349998 80.010002 86.669998 103.35"
                   y="0"
                   sodipodi:role="line"
                   id="tspan54">compiler</tspan></text>
</g><path
               d="m 163,90 151,0 0,-81 -151,0 0,81 z"
               style="fill:#fff5c0;fill-opacity:1;fill-rule:nonzero;stroke:none"
               id="path56"
               inkscape:connector-curvature="0" /><g
               id="g58"
               transform="matrix(1,0,0,-1,-87,381)"><path
                 d="m 250,291 151,0 0,81 -151,0 0,-81 z"
                 style="fill:none;stroke:#000000;stroke-width:2;stroke-linecap:butt;stroke-linejoin:miter;stroke-miterlimit:4;stroke-dasharray:none;stroke-opacity:1"
                 id="path60"
                 inkscape:connector-curvature="0" /></g><g
               id="g62"
               transform="matrix(1,0,0,-1,164,89)"><text
                 transform="translate(23.640623,33)"
                 style="font-variant:normal;font-weight:normal;font-size:30px;font-family:Helvetica;-inkscape-font-specification:Helvetica;writing-mode:lr-tb;fill:#000000;fill-opacity:1;fill-rule:nonzero;stroke:none"
                 id="text64"><tspan
                   x="0 18.33 35.009998 45 61.68 68.339996 85.019997"
                   y="0"
                   sodipodi:role="line"
                   id="tspan66">Foreign</tspan></text>
</g><g
               id="g68"
               transform="matrix(1,0,0,-1,164,89)"><text
                 transform="translate(45.305664,69)"
                 style="font-variant:normal;font-weight:normal;font-size:30px;font-family:Helvetica;-inkscape-font-specification:Helvetica;writing-mode:lr-tb;fill:#000000;fill-opacity:1;fill-rule:nonzero;stroke:none"
                 id="text70"><tspan
                   x="0 16.68 33.360001 41.700001"
                   y="0"
                   sodipodi:role="line"
                   id="tspan72">data</tspan></text>
</g><path
               d="m 314,90 151,0 0,-81 -151,0 0,81 z"
               style="fill:#fff5c0;fill-opacity:1;fill-rule:nonzero;stroke:none"
               id="path74"
               inkscape:connector-curvature="0" /><g
               id="g76"
               transform="matrix(1,0,0,-1,-87,381)"><path
                 d="m 401,291 151,0 0,81 -151,0 0,-81 z"
                 style="fill:none;stroke:#000000;stroke-width:2;stroke-linecap:butt;stroke-linejoin:miter;stroke-miterlimit:4;stroke-dasharray:none;stroke-opacity:1"
                 id="path78"
                 inkscape:connector-curvature="0" /></g><g
               id="g80"
               transform="matrix(1,0,0,-1,315,89)"><text
                 transform="translate(3.6455081,51)"
                 style="font-variant:normal;font-weight:normal;font-size:30px;font-family:Helvetica;-inkscape-font-specification:Helvetica;writing-mode:lr-tb;fill:#000000;fill-opacity:1;fill-rule:nonzero;stroke:none"
                 id="text82"><tspan
                   x="0 20.01 35.009998 50.009998 66.690002 91.68 108.36 115.02 131.7"
                   y="0"
                   sodipodi:role="line"
                   id="tspan84">Assembler</tspan></text>
</g><path
               d="m 11,171 198,0 0,-81 -198,0 0,81 z"
               style="fill:#74cdff;fill-opacity:0.38999999;fill-rule:nonzero;stroke:none"
               id="path86"
               inkscape:connector-curvature="0" /><g
               id="g88"
               transform="matrix(1,0,0,-1,-87,381)"><path
                 d="m 98,210 198,0 0,81 -198,0 0,-81 z"
                 style="fill:none;stroke:#000000;stroke-width:2;stroke-linecap:butt;stroke-linejoin:miter;stroke-miterlimit:4;stroke-dasharray:none;stroke-opacity:1"
                 id="path90"
                 inkscape:connector-curvature="0" /></g><g
               id="g92"
               transform="matrix(1,0,0,-1,12,170)"><text
                 transform="translate(33.825195,51)"
                 style="font-variant:normal;font-weight:normal;font-size:30px;font-family:Helvetica;-inkscape-font-specification:Helvetica;writing-mode:lr-tb;fill:#000000;fill-opacity:1;fill-rule:nonzero;stroke:none"
                 id="text94"><tspan
                   x="0 21.66 31.65 39.990002 61.650002 78.330002 86.669998 108.33"
                   y="0"
                   sodipodi:role="line"
                   id="tspan96">C-INLINE</tspan></text>
</g><path
               d="m 268,171 198,0 0,-81 -198,0 0,81 z"
               style="fill:#74cdff;fill-opacity:0.38999999;fill-rule:nonzero;stroke:none"
               id="path98"
               inkscape:connector-curvature="0" /><g
               id="g100"
               transform="matrix(1,0,0,-1,-87,381)"><path
                 d="m 355,210 198,0 0,81 -198,0 0,-81 z"
                 style="fill:none;stroke:#000000;stroke-width:2;stroke-linecap:butt;stroke-linejoin:miter;stroke-miterlimit:4;stroke-dasharray:none;stroke-opacity:1"
                 id="path102"
                 inkscape:connector-curvature="0" /></g><g
               id="g104"
               transform="matrix(1,0,0,-1,269,170)"><text
                 transform="translate(64.674805,51)"
                 style="font-variant:normal;font-weight:normal;font-size:30px;font-family:Helvetica;-inkscape-font-specification:Helvetica;writing-mode:lr-tb;fill:#000000;fill-opacity:1;fill-rule:nonzero;stroke:none"
                 id="text106"><tspan
                   x="0 21.66 39.990002 58.32"
                   y="0"
                   sodipodi:role="line"
                   id="tspan108">DFFI</tspan></text>
</g><g
               id="g110"
               transform="matrix(1,0,0,-1,199.71094,232)"><text
                 transform="translate(3.5,34)"
                 style="font-variant:normal;font-weight:normal;font-size:32px;font-family:Helvetica;-inkscape-font-specification:Helvetica;writing-mode:lr-tb;fill:#000000;fill-opacity:1;fill-rule:nonzero;stroke:none"
                 id="text112"><tspan
                   x="0 23.104 42.655998 62.208"
                   y="0"
                   sodipodi:role="line"
                   id="tspan114">UFFI</tspan></text>
</g></g></g></g></g></g></svg>